<?xml version="1.0" standalone="no"?>
<svg version="1.1" id="color_x5F_1" xmlns="http://www.w3.org/2000/svg" xmlns:xlink="http://www.w3.org/1999/xlink" x="0px" y="0px" width="600px" height="600px" viewBox="0 0 600 600" enable-background="new 0 0 600 600" xml:space="preserve">
<path id="color_x5F_10" fill="#67A2C1" d="M571.174,386.326v17.537L273.341,575.811L39.509,440.45v-14.614L273.341,560.39
	L571.174,386.326z M455.165,217.101v221.435l8.366-4.938v-109.86V212.263l-125.181-72.165l-8.365,4.636l0,0l0,0L455.165,217.101z"></path>
<path id="color_x5F_9" fill="#B5C9C0" d="M195.431,357.198l58.256-33.865v67.428l-56.542,34.571L195.431,357.198z M187.267,282.412
	l50.395-30.841V191.5l-51.907,30.237L187.267,282.412z M280.598,94.541l1.31,50.092l41.525-25.399V69.646l0,0L280.598,94.541z"></path>
<path id="color_x5F_8" fill="#D0E7DF" d="M129.111,386.326v-11.893V319.1l26.911,15.421l0,0v22.678l7.156,2.419l5.241,4.133v-22.174
	l27.011,15.521l1.814,68.134L129.111,386.326L129.111,386.326z M126.692,247.741l18.142,10.381l42.433,24.29l-1.613-60.675
	l-23.988-13.808l0,0v19.755l-4.636-3.628l-6.451-2.217v-20.259l0,0l-23.988-13.708l0,0l0,0v59.869H126.692z M244.516,99.378
	l15.018,13.405c0.201,5.745-3.528,13.405-3.528,13.405c0-4.132-6.35-7.66-6.35-7.66c0.202,1.915-1.814,4.032-3.628,5.543
	l35.881,20.561l-1.31-50.092l-19.855-11.389l0,0v16.328l-3.83-3.024l-5.342-1.814V77.91l0,0l-19.654-11.389l0,0l0,0v37.897
	C239.073,101.697,244.516,99.378,244.516,99.378z"></path>
<path id="color_x5F_7" fill="#FFFFFF" d="M330.086,290.072V259.23l-0.101-114.497l0,0l125.18,72.367v221.435l0,0l0,0l0,0
	L330.086,366.37v-64.304c2.822-0.907,5.846-1.915,8.365-2.822v52.713l108.551,62.59l0,0V314.161v-82.547l-108.45-62.691l0,0V289.77
	l-1.411,1.008C336.939,290.677,334.017,290.476,330.086,290.072z M168.419,341.676l27.011,15.522l58.256-33.865l-17.739-10.079
	l-9.877-5.645L168.419,341.676L168.419,341.676z M214.178,300.857l-26.608-15.119L129.111,319.2l26.911,15.421L214.178,300.857z
	 M202.486,171.544l10.583,6.047l-51.302,30.438l23.988,13.808l51.907-30.136l-58.861-33.563l-52.108,29.834l23.988,13.707
	L202.486,171.544z M294.406,53.015l8.769,4.939l-42.332,25.097l19.855,11.389l42.835-24.895l-11.389-6.451l-37.191-21.166
	l-43.038,24.592l19.755,11.389L294.406,53.015z"></path>
<path id="color_x5F_6" fill="#FD6322" d="M359.718,267.395c1.008-2.52,5.241-6.35,6.753-6.652c1.411-0.303,2.016,0.201,1.915,0.806
	l0,0l6.552-3.528c0,0,3.325,11.893,14.01,8.063l1.209-0.303l14.313,11.389l-6.048,8.467l-5.645-2.923v30.438l-23.383-13.606v-26.104
	l-0.907-1.008c0,0.101,0,0.202,0,0.403c-0.101,1.209-0.101,1.915,0,3.023c0.101,1.109-0.101,1.411-1.008,2.419
	s-2.217,1.411-3.326,1.713c-1.108,0.303-2.52,1.311-2.52,1.311s-15.622,14.01-17.033,15.42c-0.403,0.403-2.822,1.411-6.048,2.52
	v52.713l108.551,62.59V314.161v-82.547l-108.45-62.691V289.77l17.336-12.397C355.687,277.272,358.609,269.915,359.718,267.395z
	 M403.058,346.212l-6.35-2.317l-12.599,22.476l-17.135-10.382v-21.77l20.46,10.885l7.257-7.761l8.366,4.737V346.212z"></path>
<path id="color_x5F_5" fill="#FFD2BB" d="M302.469,268.1c0,0,3.932-5.342,5.443-10.079c0,0,2.52,7.358,1.713,13.002
	c-0.101,0.605-0.201,1.109-0.302,1.613c-1.613,5.644-3.729,6.148-6.45,7.559c-2.722,1.411-3.729,5.443-3.729,5.443
	s-6.552,1.411-10.18-0.706c0,0,0.202-1.008,0.403-2.218c0.202-1.512,0.302-3.326-0.403-4.031c-0.302-0.302-0.706-0.605-1.108-0.806
	l0,0c0,0,5.14,1.512,9.172-0.101s4.838-3.628,4.838-3.628s-3.226-1.814-4.536-5.342s-0.302-6.148,1.814-5.947
	C301.361,262.758,302.57,263.968,302.469,268.1z M289.871,438.535c0,0,2.318,0.907,4.334,0l0.302-3.124h-5.14L289.871,438.535z
	 M310.129,442.97l-1.914,0.202l0.402,1.512l0,0l0.202,0.604l5.241-0.907l-0.202-1.915l0,0L310.129,442.97z M367.378,278.179
	c0.907-1.008,1.108-1.311,1.008-2.419c-0.101-1.109-0.101-1.814,0-3.024c0-0.101,0-0.302,0-0.403c0-1.008-0.201-1.713-0.807-2.722
	c-0.705-1.209-2.217-3.225-2.217-4.031c0.101-0.807,2.923-3.528,3.023-4.132l0,0c0.101-0.605-0.504-1.008-1.915-0.807
	c-1.411,0.302-5.645,4.132-6.753,6.652c-1.008,2.52-3.931,9.978-3.931,9.978l5.745,3.931c0,0,1.411-1.008,2.52-1.31
	C365.06,279.59,366.471,279.288,367.378,278.179z"></path>
<path id="color_x5F_4" fill="#00CEC9" d="M273.341,560.39L39.509,425.836l89.602-51.402v11.893l0,0l68.033,39.006l56.542-34.571
	v-67.428l-17.739-10.079l33.563-19.251c0.504,1.512,0.806,3.024,0.806,4.536c0.202,8.567-6.047,6.955-6.047,6.955
	s3.427,3.527,10.785,3.628c0.403,0,0.806,0,1.209-0.101l0,0c0,0,0.403,0.202,2.721,8.366c2.217,8.264-2.721,27.615-2.721,27.615
	s0.403,0.303,1.31,0.807c0,0-3.326,4.334-2.116,16.228c1.209,11.894,3.729,17.335,7.66,30.237
	c3.931,13.001,5.543,43.036,5.543,43.036h0.706l0.504,3.125c0,0,0,4.132,0,4.435s-0.302,0.604,0.403,1.008
	c0.706,0.504,4.233,0.907,4.636,0.807s10.482-6.249,10.482-6.249s-0.504-4.334-2.016-4.938c-1.613-0.605-1.814,0.806-4.234,1.813
	c-2.318,1.008-3.427,0.504-3.427,0.504l-1.411,0.504l-0.202,2.117l0.302-3.125h1.31v-35.578l11.289,43.642l3.023-0.403l-1.915,0.202
	l0.403,1.512l-1.108,0.604c0,0,0.705,4.233,0.705,4.535c0,0.303,2.419,0.807,2.923,0.807s1.512,0.504,2.621-0.101
	c1.209-0.706,10.885-4.334,11.389-5.846s-1.411-2.822-2.923-3.023c-1.411-0.202-3.729,0.806-3.729,0.806s-2.318,1.21-2.521,1.411
	c-0.201,0.201-1.915,0.504-1.915,0.504l-0.201-1.915l1.411-0.201c0,0-4.737-50.193-6.552-67.327
	c-1.813-17.034-2.721-24.795-2.721-24.795s-1.109-23.988,2.217-28.523s3.931-10.885,3.528-12.699
	c-0.403-1.713,4.736-3.427,6.954-3.83c1.008-0.201,5.946-1.613,11.188-3.326v64.304l125.08,72.165l0,0l0,0l0,0l0,0l8.365-4.938
	V323.736l107.644,62.59L273.341,560.39z M302.873,280.094c-2.722,1.411-3.73,5.442-3.73,5.442s7.157,1.008,10.684,2.016
	c2.318,0.705,13.002,1.713,20.259,2.419V259.13l-20.359,11.691c-0.102,0.605-0.202,1.109-0.303,1.613
	C307.71,278.179,305.594,278.784,302.873,280.094z"></path>
<path id="color_x5F_3" fill="#E84393" d="M304.787,350.748c0.504-0.102,0.908-0.303,1.411-0.404c0,0,0.807,7.66,2.722,24.795
	c1.814,17.033,6.552,67.327,6.552,67.327l-1.411,0.202l0,0l-3.729,0.504l-3.023,0.402l-11.289-43.642v35.479h-1.31h-5.14h-0.706
	c0,0-1.613-30.036-5.543-43.038s-6.35-18.344-7.66-30.236c-1.209-11.893,2.117-16.227,2.117-16.227l0,0l0,0
	c0.504,0.302,1.209,0.705,2.016,1.209c0.101,0.101,0.202,0.101,0.403,0.201c0.101,0,0.202,0.102,0.202,0.102
	c0.202,0.101,0.302,0.201,0.504,0.201c0.101,0,0.101,0.101,0.202,0.101c0.202,0.101,0.403,0.202,0.604,0.303
	c0.101,0,0.101,0.101,0.202,0.101c0.807,0.403,1.713,0.807,2.621,1.109c0,0,0,0,0.101,0c0.302,0.1,0.604,0.201,0.907,0.302h0.101
	c1.31,0.504,2.822,0.907,4.334,1.31h0.101c0.302,0.102,0.706,0.102,1.109,0.202h0.101c1.209,0.202,2.419,0.403,3.729,0.504
	c0.101,0,0.101,0,0.202,0c0.303,0,0.706,0,1.008,0.101c0.101,0,0.201,0,0.302,0c0.302,0,0.706,0,1.008,0c0.101,0,0.202,0,0.302,0
	c0.403,0,0.806,0,1.209,0h0.101c0.403,0,0.907-0.101,1.31-0.101c0.101,0,0.202,0,0.302,0c0.303,0,0.705-0.101,1.008-0.101
	c0.102,0,0.303,0,0.403-0.101c0.302-0.101,0.604-0.101,0.907-0.202c0.201,0,0.303-0.101,0.504-0.101
	c0.303-0.101,0.604-0.101,0.907-0.202C304.485,350.748,304.586,350.748,304.787,350.748z M289.871,438.535c0,0,0,4.133,0,4.435
	c0,0.303-0.302,0.604,0.403,1.008c0.706,0.504,4.233,0.907,4.636,0.807s10.482-6.249,10.482-6.249s-0.504-4.334-2.016-4.938
	c-1.613-0.604-1.814,0.806-4.234,1.814c-2.318,1.008-3.427,0.504-3.427,0.504l-1.411,0.504l-0.202,2.116
	C292.189,439.442,289.871,438.535,289.871,438.535z M308.719,444.784L308.719,444.784l-1.109,0.604c0,0,0.706,4.233,0.706,4.536
	c0,0.302,2.419,0.806,2.923,0.806s1.512,0.504,2.62-0.101c1.21-0.705,10.886-4.334,11.39-5.846s-1.411-2.822-2.923-3.023
	c-1.411-0.202-3.729,0.806-3.729,0.806s-2.318,1.21-2.52,1.411c-0.202,0.202-1.915,0.504-1.915,0.504l-5.241,0.907L308.719,444.784z
	 M156.022,334.621v22.678l7.156,2.419l5.241,4.132v-22.174l0,0l57.651-34.066l0,0l-11.893-6.752l0,0L156.022,334.621
	L156.022,334.621z M202.486,171.544l-51.806,30.035l0,0v20.259l6.451,2.217l4.636,3.628v-19.755l0,0l51.302-30.438L202.486,171.544z
	 M294.406,53.015L251.671,77.81l0,0v16.731l5.342,1.814l3.83,3.023V83.151l0,0l42.332-25.097L294.406,53.015z M222.04,117.521
	c0,0-1.008,4.334-10.885,6.551c0,0,15.32-0.604,20.762-5.14c0,0-0.302,4.334-3.225,7.156c0,0,8.466-0.403,12.901-4.637l0,0
	c0.303-0.302,0.605-0.604,0.907-0.907c0,0,0.403,0.806,0.706,1.814l0,0c0.302,1.109,0.504,2.52,0,3.729c0,0,1.411-0.807,2.923-2.117
	l0,0c1.915-1.512,3.931-3.628,3.628-5.543c0,0,6.35,3.527,6.35,7.66c0,0,3.729-7.56,3.528-13.405l-15.018-13.405
	c0,0-5.443,2.318-12.599,4.938l0,0c-8.466,3.125-19.251,6.854-26.508,7.962c-13.405,2.016-17.336,0-17.336,0
	S207.425,125.08,222.04,117.521z M323.434,69.646L323.434,69.646v0.605c1.915-2.117,3.124-3.931,3.124-3.931
	c-3.931,1.109-7.861-0.706-7.861-0.706c6.652-2.52,14.716-15.521,14.716-15.521c-6.854,7.458-11.087,6.249-11.087,6.249
	c13.808-8.97,12.195-32.051,12.195-32.051s-0.101,4.435-8.467,15.018c-4.736,6.047-13.808,14.009-20.862,19.956l6.954,3.931
	L323.434,69.646L323.434,69.646z"></path>
<path id="color_x5F_2" fill="#FBC02D" d="M365.262,265.681c0.101-0.806,2.923-3.528,3.023-4.132l6.551-3.528
	c0,0,3.326,11.894,14.01,8.063l1.21-0.302l14.312,11.389l-6.047,8.466l-5.645-2.923v30.438l-23.383-13.606v-26.104l-0.907-1.008
	c0-1.008-0.201-1.713-0.807-2.721C366.773,268.503,365.262,266.487,365.262,265.681z M387.435,345.002l-20.46-10.885v21.771
	l17.135,10.382l12.599-22.477l6.35,2.318v-4.233l-8.366-4.737L387.435,345.002z M338.351,299.143
	c3.124-1.108,5.543-2.116,6.047-2.52c1.411-1.411,17.034-15.421,17.034-15.421l-5.745-3.931l-17.336,12.397l-1.411,1.008
	c0,0-2.923-0.302-6.954-0.604c-7.257-0.706-17.941-1.814-20.259-2.419c-3.528-1.008-10.684-2.016-10.684-2.016
	s-6.551,1.411-10.18-0.706l-0.806,0.202l0,0c0.101,0.604,0.201,1.209,0.302,1.814c0,0.101,0,0.101,0,0.202
	c0.101,0.504,0.101,1.008,0.202,1.512c0,0.202,0,0.403,0,0.504c0,0.504,0.101,0.907,0.101,1.411c0,0.202,0,0.403,0,0.605
	c0,0.706,0,1.31,0,2.016c0,0.604-0.101,1.109-0.101,1.713c0,0.202-0.101,0.403-0.101,0.504c-0.101,0.403-0.101,0.706-0.202,1.109
	c0,0.202-0.101,0.403-0.101,0.604c-0.101,0.302-0.101,0.605-0.202,0.907c-0.101,0.202-0.101,0.403-0.202,0.706
	c-0.101,0.302-0.202,0.504-0.302,0.806c-0.101,0.202-0.202,0.403-0.302,0.706c-0.101,0.202-0.202,0.504-0.302,0.705
	c-0.101,0.202-0.202,0.404-0.303,0.605c-0.101,0.201-0.202,0.402-0.302,0.604s-0.202,0.403-0.403,0.604
	c-0.101,0.202-0.201,0.403-0.403,0.605c-0.101,0.201-0.302,0.402-0.403,0.604c-0.101,0.201-0.302,0.302-0.403,0.504
	c-0.202,0.202-0.303,0.403-0.504,0.604c-0.101,0.102-0.302,0.303-0.403,0.403c-0.202,0.202-0.403,0.403-0.605,0.504
	c-0.101,0.101-0.302,0.202-0.403,0.403c-0.202,0.201-0.403,0.303-0.605,0.504c-0.101,0.101-0.302,0.201-0.403,0.303
	c-0.201,0.201-0.504,0.302-0.706,0.402c-0.101,0.102-0.302,0.102-0.403,0.201c-0.202,0.102-0.504,0.303-0.706,0.404
	c-0.101,0.101-0.202,0.101-0.403,0.201c-0.302,0.101-0.504,0.201-0.806,0.303c-0.101,0-0.202,0.101-0.302,0.101
	c-0.303,0.101-0.605,0.201-0.907,0.201c-0.101,0-0.202,0-0.202,0c-0.302,0.101-0.706,0.101-1.008,0.202l0,0l0,0
	c0,0,0.403,0.201,2.721,8.365c2.217,8.265-2.721,27.616-2.721,27.616s0.403,0.302,1.31,0.806l0,0l0,0
	c0.504,0.303,1.209,0.706,2.016,1.21c0.101,0.101,0.202,0.101,0.403,0.202c0.101,0,0.202,0.101,0.202,0.101
	c0.202,0.101,0.302,0.202,0.504,0.202c0.101,0,0.101,0.1,0.202,0.1c0.202,0.102,0.403,0.202,0.605,0.303
	c0.101,0,0.101,0.102,0.202,0.102c0.806,0.402,1.713,0.806,2.62,1.107c0,0,0,0,0.101,0c0.302,0.102,0.604,0.202,0.907,0.303h0.101
	c1.31,0.504,2.822,0.907,4.334,1.311h0.101c0.302,0.101,0.706,0.101,1.109,0.201h0.101c1.209,0.202,2.419,0.403,3.729,0.504
	c0.101,0,0.101,0,0.202,0c0.302,0,0.706,0,1.008,0.102c0.101,0,0.202,0,0.302,0c0.302,0,0.706,0,1.008,0c0.101,0,0.202,0,0.302,0
	c0.403,0,0.807,0,1.209,0h0.101c0.403,0,0.907-0.102,1.31-0.102c0.101,0,0.202,0,0.303,0c0.303,0,0.705-0.101,1.008-0.101
	c0.101,0,0.303,0,0.402-0.101c0.303-0.101,0.605-0.101,0.908-0.201c0.201,0,0.302-0.102,0.504-0.102
	c0.302-0.101,0.604-0.101,0.906-0.201c0.102,0,0.303-0.102,0.403-0.102c0.505-0.1,0.907-0.302,1.411-0.402
	c0,0-1.108-23.988,2.218-28.523s3.931-10.885,3.527-12.699c-0.403-1.714,4.737-3.428,6.954-3.83
	c1.009-0.201,5.947-1.613,11.188-3.326C332.908,301.059,335.932,300.05,338.351,299.143z"></path>
<path id="color_x5F_1_1_" fill="#121019" d="M264.27,305.493c0,0,3.427,3.527,10.785,3.628c0.403,0,0.806,0,1.209-0.101l0,0
	c0.403,0,0.706-0.101,1.008-0.201c0.101,0,0.202,0,0.202,0c0.302-0.101,0.604-0.101,0.907-0.202c0.101,0,0.202-0.101,0.302-0.101
	c0.302-0.101,0.604-0.202,0.806-0.302c0.101-0.102,0.302-0.102,0.403-0.202c0.302-0.101,0.504-0.202,0.706-0.403
	c0.101-0.101,0.302-0.101,0.403-0.201c0.202-0.102,0.504-0.303,0.706-0.403c0.101-0.101,0.303-0.202,0.403-0.302
	c0.202-0.202,0.403-0.303,0.605-0.504c0.101-0.102,0.302-0.202,0.403-0.404c0.202-0.201,0.403-0.402,0.605-0.504
	c0.101-0.101,0.302-0.302,0.403-0.402c0.202-0.202,0.303-0.403,0.504-0.605c0.101-0.201,0.302-0.302,0.403-0.504
	c0.101-0.201,0.302-0.402,0.403-0.604c0.101-0.202,0.202-0.403,0.403-0.604c0.101-0.201,0.303-0.403,0.403-0.605
	c0.101-0.201,0.202-0.402,0.302-0.604c0.101-0.202,0.202-0.404,0.303-0.605c0.101-0.201,0.201-0.504,0.302-0.706
	c0.101-0.202,0.202-0.403,0.302-0.706c0.101-0.302,0.202-0.504,0.302-0.806c0.101-0.202,0.101-0.403,0.202-0.706
	c0.101-0.302,0.101-0.605,0.202-0.907c0-0.202,0.101-0.403,0.101-0.604c0.101-0.303,0.101-0.706,0.202-1.109
	c0-0.202,0.101-0.403,0.101-0.504c0.101-0.504,0.101-1.109,0.101-1.713c0-0.706,0-1.311,0-2.016c0-0.202,0-0.403,0-0.605
	c0-0.504,0-0.907-0.101-1.411c0-0.202,0-0.403,0-0.504c0-0.504-0.101-1.008-0.202-1.512c0-0.101,0-0.101,0-0.202
	c-0.101-0.604-0.202-1.209-0.302-1.814l0,0c-0.101-0.504-0.202-1.008-0.303-1.512c-1.008-4.132-2.318-6.753-2.318-6.753
	s1.209,0.303,2.318,1.008l0,0c0,0,5.141,1.512,9.172-0.101s4.838-3.628,4.838-3.628s-3.225-1.814-4.535-5.342
	c-1.311-3.528-0.303-6.148,1.814-5.947c2.117,0.101,3.327,1.311,3.327,5.443c0,0,3.93-5.342,5.442-10.079
	c0,0,2.317-10.684-4.737-16.731c-7.056-6.047-12.397-4.334-16.328-2.016c-4.032,2.217-3.427,5.14-3.427,5.14
	s-1.209,0.202-5.846,2.621c-4.636,2.318-6.148,11.087-6.148,11.087s-9.474,4.132-10.079,13.506
	c-0.504,7.761,5.745,15.32,8.063,22.577c0.504,1.512,0.806,3.023,0.806,4.536C270.519,307.005,264.27,305.493,264.27,305.493z"></path>
</svg>